<svg width="356" height="117" viewBox="0 0 356 117" fill="none" xmlns="http://www.w3.org/2000/svg">
<path d="M328.687 112.623C303.005 115.363 279.408 116.733 257.897 116.733C247.141 116.733 239.239 114.212 234.19 109.17C229.141 104.128 226.617 96.2364 226.617 85.4947V32.8826C226.617 21.3737 229.196 13.0434 234.355 7.89183C239.623 2.63061 248.019 0 259.543 0H318.81V23.0178H266.128C259.543 23.0178 256.25 26.3061 256.25 32.8826V85.4947C256.25 88.0157 256.964 90.0435 258.391 91.578C259.927 93.0029 261.958 93.7154 264.482 93.7154C277.103 93.7154 288.628 93.4413 299.054 92.8933V69.0534H277.652V49.3239H328.687V112.623Z" fill="white"/>
<path d="M136.824 115.089H104.721L148.348 0H181.273L224.9 115.089H192.797L181.47 87.3033H146.24L136.824 115.089ZM151.64 73.1637H177.981L164.811 34.5267L151.64 73.1637Z" fill="white"/>
<path d="M81.705 115.089H52.0718V23.0178H17.4997V0H116.277V23.0178H81.705V115.089Z" fill="white"/>
<path d="M156.282 58.531L228.719 58.531V91.4136H144.593L156.282 58.531Z" fill="#FF9F01"/>
<path d="M267.9 42.0897L355.5 42.0897L344.5 74.9723H256.212L267.9 42.0897Z" fill="#FF9F01"/>
<path d="M244.359 91.4136H171.922V58.531L256.047 58.531L244.359 91.4136Z" fill="#FF9F01"/>
<path d="M113.643 91.4136H0.5L17.4997 58.531L126.155 58.531L113.643 91.4136Z" fill="#FF9F01"/>
</svg>
