<svg width="842" height="117" viewBox="0 0 842 117" fill="none" xmlns="http://www.w3.org/2000/svg">
<path d="M570.687 112.623C545.005 115.363 521.408 116.733 499.897 116.733C489.141 116.733 481.239 114.212 476.19 109.17C471.141 104.128 468.617 96.2364 468.617 85.4947V32.8826C468.617 21.3737 471.196 13.0434 476.355 7.89183C481.623 2.63061 490.019 0 501.543 0H560.81V23.0178H508.128C501.543 23.0178 498.25 26.3061 498.25 32.8826V85.4947C498.25 88.0157 498.964 90.0435 500.391 91.578C501.927 93.0029 503.958 93.7154 506.482 93.7154C519.103 93.7154 530.628 93.4413 541.054 92.8933V69.0534H519.652V49.3239H570.687V112.623Z" fill="white"/>
<path d="M378.824 115.089H346.721L390.348 0H423.273L466.9 115.089H434.797L423.47 87.3033H388.24L378.824 115.089ZM393.64 73.1637H419.981L406.811 34.5267L393.64 73.1637Z" fill="white"/>
<path d="M323.705 115.089H294.072V23.0178H259.5V0H358.277V23.0178H323.705V115.089Z" fill="white"/>
<path d="M398.282 58.531L470.719 58.531V91.4136H386.593L398.282 58.531Z" fill="#FF9F01"/>
<path d="M509.9 42.0897L857.001 42.0897V74.9723H498.212L509.9 42.0897Z" fill="#FF9F01"/>
<path d="M486.359 91.4136H413.922V58.531L498.047 58.531L486.359 91.4136Z" fill="#FF9F01"/>
<path d="M355.643 91.4136H-38L-38 58.531H368.155L355.643 91.4136Z" fill="#FF9F01"/>
</svg>
